<?xml version="1.0" encoding="utf-8"?>
<!-- Generator: Adobe Illustrator 16.0.0, SVG Export Plug-In . SVG Version: 6.00 Build 0)  -->
<!DOCTYPE svg PUBLIC "-//W3C//DTD SVG 1.1//EN" "http://www.w3.org/Graphics/SVG/1.1/DTD/svg11.dtd">
<svg version="1.1" id="Layer_1" xmlns="http://www.w3.org/2000/svg" xmlns:xlink="http://www.w3.org/1999/xlink" x="0px" y="0px"
	 width="639px" height="639px" viewBox="64.5 64.5 639 639" enable-background="new 64.5 64.5 639 639" xml:space="preserve">
<path d="M609.75,158.25C547.25,95.75,472,64.5,384,64.5s-163.25,31.25-225.75,93.75S64.5,296,64.5,384s31.25,163.25,93.75,225.75
	S296,703.5,384,703.5s163.25-31.25,225.75-93.75S703.5,472,703.5,384S672.25,220.75,609.75,158.25z M564.75,564.75
	C514.25,615.25,454,640.5,384,640.5s-130.25-25.25-180.75-75.75S127.5,454,127.5,384s25.25-130.25,75.75-180.75S314,127.5,384,127.5
	s130.25,25.25,180.75,75.75S640.5,314,640.5,384S615.25,514.25,564.75,564.75z"/>
<path fill="#00A9EB" d="M384,223.5c44,0,81.75,15.75,113.25,47.25S544.5,340,544.5,384s-15.75,81.75-47.25,113.25
	S428,544.5,384,544.5s-81.75-15.75-113.25-47.25S223.5,428,223.5,384s15.75-81.75,47.25-113.25S340,223.5,384,223.5z"/>
</svg>
