<svg clip-rule="evenodd" fill-rule="evenodd" stroke-linejoin="round" stroke-miterlimit="2" viewBox="0 0 100 100" xmlns="http://www.w3.org/2000/svg"><g fill-rule="nonzero"><path d="m0 10.716c-.813 0-1.629.041-2.439-.01-1.213-.076-2.165-.622-2.651-1.783-.163-.389-.254-.826-.284-1.248-.117-1.646-.139-3.297.02-4.942.15-1.557 1.108-2.507 2.683-2.701.304-.038.612-.073.917-.071 1.464.014 2.929.027 4.392.074.336.011.683.118.999.245 1.095.44 1.64 1.303 1.739 2.447.148 1.707.143 3.418.009 5.126-.133 1.695-1.266 2.792-2.969 2.859-.804.032-1.611.006-2.416.006zm4.357-5.416c-.028-.779-.045-1.569-.089-2.358-.04-.721-.31-1.316-1.037-1.593-.219-.084-.457-.154-.689-.165-.75-.037-1.502-.06-2.253-.058-.943.002-1.889-.003-2.828.062-1.076.075-1.649.674-1.701 1.748-.055 1.141-.066 2.284-.076 3.426-.005.436.039.873.071 1.309.08 1.071.627 1.654 1.71 1.745.725.061 1.455.063 2.183.061.966-.002 1.935.006 2.897-.062 1.106-.079 1.669-.697 1.727-1.805.041-.765.057-1.532.085-2.31" transform="matrix(9.12664 0 0 9.12664 49.8999 1.05669)"/><path d="m0 5.373c-1.472-.006-2.657-1.218-2.649-2.709.008-1.467 1.217-2.67 2.676-2.663 1.472.006 2.668 1.219 2.663 2.701-.005 1.48-1.21 2.677-2.69 2.671m1.555-2.68c.002-.856-.673-1.545-1.52-1.553-.855-.008-1.552.685-1.555 1.546-.004.856.699 1.563 1.547 1.557.846-.007 1.526-.696 1.528-1.55" transform="matrix(9.12664 0 0 9.12664 51.1078 27.86)"/><path d="m-.609-.606c-.341-.003-.623.265-.628.602-.006.348.272.626.628.625.346-.001.61-.266.612-.612.001-.342-.266-.611-.612-.615" transform="matrix(.238135 -9.12353 -9.12353 -.238135 77.9571 22.5827)"/></g></svg>