<svg clip-rule="evenodd" fill-rule="evenodd" stroke-linejoin="round" stroke-miterlimit="2" viewBox="0 0 100 100" xmlns="http://www.w3.org/2000/svg"><path d="m0-7.594c.477-.025.917-.196 1.397-.371-.325.496-.697.898-1.136 1.234-.146.112-.196.224-.194.405.031 3.166-1.864 6.112-4.758 7.253-2.362.932-4.683.746-6.902-.518-.039-.022-.075-.047-.11-.074-.01-.007-.014-.021-.036-.06 1.434.119 2.727-.219 3.914-1.108-1.239-.129-2.06-.743-2.52-1.91.393.075.746.076 1.159-.029-1.322-.444-2.02-1.312-2.109-2.694.386.155.732.326 1.126.298.01.009.021.017.031.026.004-.007.008-.014.012-.021-.013-.002-.027-.005-.041-.008-.257-.289-.562-.536-.748-.889-.432-.818-.46-1.644-.088-2.489.07-.158.121-.205.262-.044 1.351 1.545 3.049 2.43 5.096 2.636.015.002.03.003.044.005.294.036.283.038.245-.261-.145-1.15.492-2.39 1.719-2.848 1.048-.392 2.002-.193 2.836.551.092.083.167.109.293.079.455-.109.888-.27 1.303-.483.069-.035.128-.095.23-.094-.183.597-.577 1.022-1.041 1.397-.019.007-.061-.002-.047.031.009.022.045.011.063-.014" fill-rule="nonzero" transform="matrix(7.4913 0 0 7.4913 88.7375 79.0104)"/></svg>