<?xml version="1.0" standalone="no"?>
<!DOCTYPE svg PUBLIC "-//W3C//DTD SVG 20010904//EN"
 "http://www.w3.org/TR/2001/REC-SVG-20010904/DTD/svg10.dtd">
<svg version="1.0" xmlns="http://www.w3.org/2000/svg"
 width="700.000000pt" height="700.000000pt" viewBox="0 0 700.000000 700.000000"
 preserveAspectRatio="xMidYMid meet">
<metadata>
Created by potrace 1.11, written by Peter Selinger 2001-2013
</metadata>
<g transform="translate(0.000000,700.000000) scale(0.100000,-0.100000)"
fill="#000000" stroke="none">
<path d="M3269 6406 c-2 -2 -40 -7 -84 -11 -90 -8 -128 -12 -165 -20 -14 -3
-42 -7 -64 -10 -258 -34 -728 -213 -959 -366 -32 -21 -60 -39 -63 -39 -9 0
-232 -169 -304 -230 -346 -295 -630 -670 -804 -1060 -101 -225 -188 -541 -213
-770 -2 -25 -8 -72 -13 -105 -8 -65 -6 -571 3 -620 3 -16 9 -55 12 -85 11 -91
15 -112 31 -190 114 -555 368 -1022 789 -1446 384 -388 802 -636 1295 -768 52
-14 111 -28 130 -31 19 -3 51 -10 70 -15 34 -8 58 -12 170 -25 30 -4 66 -9 80
-12 42 -9 551 -11 615 -3 33 5 85 11 115 15 366 42 763 183 1103 393 326 201
675 533 899 857 272 393 428 815 485 1310 16 142 8 632 -12 745 -2 14 -9 57
-15 95 -44 282 -170 642 -313 890 -49 85 -197 310 -229 347 -13 14 -31 37 -42
50 -125 155 -313 344 -466 469 -226 185 -503 350 -735 438 -33 13 -69 27 -80
31 -105 42 -376 115 -468 126 -29 4 -55 8 -58 10 -3 2 -34 6 -70 9 -35 4 -91
10 -124 15 -57 7 -509 12 -516 6z m481 -580 c106 -14 126 -16 150 -21 13 -3
41 -7 62 -10 21 -3 94 -21 161 -40 387 -106 717 -303 1027 -614 398 -400 614
-843 674 -1384 13 -117 14 -425 2 -502 -3 -22 -8 -60 -11 -85 -3 -25 -7 -56
-10 -70 -3 -14 -8 -41 -11 -60 -57 -327 -234 -703 -468 -990 -144 -178 -368
-383 -548 -503 -179 -119 -296 -178 -515 -261 -96 -36 -298 -83 -433 -101 -25
-3 -58 -9 -75 -11 -108 -20 -524 -6 -655 21 -14 3 -51 10 -82 15 -158 29 -377
105 -543 188 -365 182 -720 505 -960 872 -57 87 -145 255 -187 355 -43 103
-104 309 -122 415 -3 19 -8 46 -11 60 -6 28 -12 78 -24 195 -12 128 -2 518 14
545 2 3 6 26 9 50 4 25 9 56 11 70 3 14 7 34 9 45 58 299 240 674 459 945 83
101 283 301 386 383 89 72 224 164 306 210 85 47 273 137 287 137 8 0 18 4 24
9 25 25 369 114 494 127 183 21 458 25 580 10z"/>
<path d="M3488 4965 c-1 -1 -48 -6 -103 -9 -81 -5 -217 -28 -305 -51 -135 -37
-322 -134 -463 -242 -89 -68 -243 -227 -310 -320 -94 -132 -202 -356 -221
-459 -2 -16 -11 -60 -20 -99 -25 -119 -35 -322 -21 -435 17 -135 43 -254 76
-340 11 -30 21 -59 23 -65 1 -5 23 -50 48 -100 134 -264 382 -511 648 -649 96
-49 236 -105 285 -112 11 -1 54 -10 95 -19 169 -37 442 -34 595 7 22 5 51 12
65 14 54 9 209 71 295 117 226 122 431 314 570 531 111 174 191 405 210 607 6
70 6 253 0 304 -3 22 -7 60 -10 83 -35 279 -180 563 -405 792 -264 268 -583
418 -930 436 -52 3 -100 7 -107 9 -6 2 -13 2 -15 0z"/>
</g>
</svg>
