<?xml version="1.0" encoding="UTF-8" standalone="no"?>
<!DOCTYPE svg PUBLIC "-//W3C//DTD SVG 1.1//EN" "http://www.w3.org/Graphics/SVG/1.1/DTD/svg11.dtd">
<svg width="100%" height="100%" viewBox="0 0 100 100" version="1.1" xmlns="http://www.w3.org/2000/svg" xmlns:xlink="http://www.w3.org/1999/xlink" xml:space="preserve" xmlns:serif="http://www.serif.com/" style="fill-rule:evenodd;clip-rule:evenodd;stroke-linejoin:round;stroke-miterlimit:2;">
    <g transform="matrix(9.28419,0,0,9.28419,99.1644,94.2717)">
        <path d="M0,-9.537C-0.198,-9.952 -0.53,-10.152 -0.984,-10.153C-2.61,-10.154 -4.237,-10.154 -5.863,-10.154C-7.091,-10.154 -8.318,-10.154 -9.546,-10.153C-10.273,-10.153 -10.68,-9.745 -10.68,-9.017C-10.681,-6.194 -10.681,-3.371 -10.681,-0.548C-10.681,0.067 -10.479,0.359 -9.903,0.582C-9.888,0.588 -9.877,0.605 -9.864,0.617L-0.771,0.617C-0.474,0.517 -0.203,0.383 -0.05,0.088C0,-0.008 0.043,-0.108 0.09,-0.206L0.09,-9.299C0.028,-9.366 0.037,-9.46 0,-9.537M-6.239,-5.91C-6.239,-6.036 -6.205,-6.088 -6.07,-6.084C-5.759,-6.076 -5.447,-6.075 -5.136,-6.084C-4.995,-6.088 -4.942,-6.043 -4.956,-5.903C-4.966,-5.805 -4.958,-5.705 -4.958,-5.562C-4.429,-6.184 -3.801,-6.302 -3.088,-6.093C-2.664,-5.969 -2.401,-5.683 -2.269,-5.268C-2.186,-5.005 -2.145,-4.735 -2.144,-4.459C-2.138,-3.655 -2.135,-2.852 -2.122,-2.048C-2.12,-1.897 -2.158,-1.838 -2.319,-1.844C-2.642,-1.856 -2.967,-1.854 -3.291,-1.845C-3.432,-1.84 -3.47,-1.887 -3.468,-2.026C-3.462,-2.699 -3.466,-3.372 -3.465,-4.045C-3.464,-4.195 -3.474,-4.344 -3.505,-4.49C-3.568,-4.782 -3.735,-4.956 -3.987,-4.994C-4.352,-5.048 -4.63,-4.933 -4.776,-4.665C-4.853,-4.525 -4.88,-4.373 -4.888,-4.216C-4.926,-3.499 -4.916,-2.783 -4.904,-2.066C-4.901,-1.899 -4.94,-1.836 -5.119,-1.844C-5.43,-1.859 -5.742,-1.854 -6.054,-1.846C-6.187,-1.842 -6.24,-1.875 -6.24,-2.021C-6.235,-3.317 -6.235,-4.613 -6.239,-5.91M-7.029,-2.027C-7.025,-1.889 -7.072,-1.842 -7.212,-1.845C-7.536,-1.854 -7.86,-1.856 -8.184,-1.845C-8.339,-1.839 -8.371,-1.899 -8.37,-2.041C-8.364,-2.682 -8.367,-3.324 -8.367,-3.966C-8.367,-4.608 -8.363,-5.25 -8.37,-5.891C-8.371,-6.036 -8.333,-6.09 -8.18,-6.085C-7.882,-6.074 -7.582,-6.081 -7.283,-6.081C-7.036,-6.081 -7.035,-6.081 -7.035,-5.84C-7.035,-4.856 -7.035,-3.871 -7.034,-2.887C-7.034,-2.6 -7.037,-2.313 -7.029,-2.027M-7.692,-8.169C-7.258,-8.167 -6.93,-7.829 -6.935,-7.388C-6.939,-6.947 -7.268,-6.627 -7.713,-6.631C-8.131,-6.635 -8.474,-6.983 -8.472,-7.399C-8.469,-7.824 -8.118,-8.171 -7.692,-8.169" style="fill-rule:nonzero;"/>
    </g>
</svg>
