<svg xmlns="http://www.w3.org/2000/svg" width="100%" height="100%" viewBox="0 0 204.784 219.5"><path fill="#00053E" d="M68.8 129.4c6.3 13.3 19.2 22.5 34.2 22.5 15.8 0 30.7-6.2 30.7-19.7 0-8-7.7-9.9-13.6-11 -4.5-0.9-27.2-4.4-32.4-5.3 -10.2-1.9-35.8-6.7-35.8-31.8 0-5.5 1.6-11.1 4.4-15.6 9.2-14.9 29.6-23.7 47.1-23.7 36.1 0 53.6 27.7 55.7 31.3l-23.3 5.4c-0.9-1.7-9.1-16.1-31.5-16.1 -12.2 0-25.6 6.4-25.6 16.9 0 7.2 6.4 9.1 14.7 10.9 4.5 0.9 27.1 4.7 32.2 5.8 12.8 2.3 34.6 7 34.6 31.3 0 35.5-42.6 44.1-56.5 44.1 -18.2 0-43.5-10.5-57.7-38.5L68.8 129.4z"/><path fill="#009ADA" d="M183.5 148c-14 27.7-42.7 46.7-75.9 46.7 -46.9 0-85-38-85-85 0-46.9 38-85 85-85 33.2 0 62 19.1 75.9 46.8l21.2-4.8c-16.5-37.3-53.8-63.3-97.2-63.3C49 3.5 1.4 51.1 1.4 109.8c0 58.7 47.6 106.2 106.2 106.2 43.3 0 80.6-26 97.1-63.2L183.5 148z"/></svg>